#!OML:ASF G:\JayActor3\Patient Classification 1\Patient 1\Session 5\male.ASF
:FULLY-SPECIFIED
:DEGREES
1347
root -37.6423 16.85 -25.1148 164.51 -252.484 166.023
lowerback 4.45318 -2.83023 0.977326
upperback 2.73283 -3.69528 0.529517
thorax 0.286821 -1.82476 0.148764
lowerneck -9.73792 -4.04045 -1.4196
upperneck 16.0191 -6.72329 9.17087
head 6.86565 -2.50176 2.59325
rclavicle -2.70347e-014 -7.15625e-015
rhumerus -28.9123 -0.265692 -89.1076
rradius 27.1742
rwrist 2.91468
rhand -21.7648 -8.44907
rfingers 7.12502
rthumb 4.63585 -38.3783
lclavicle -2.70347e-014 -7.15625e-015
lhumerus -25.1248 -1.54008 88.3229
lradius 29.0044
lwrist 19.9322
lhand -24.8845 15.4083
lfingers 7.12502
lthumb 1.6231 45.3818
rfemur -17.9173 19.7798 22.1903
rtibia 35.1261
rfoot -13.4566 10.5004
rtoes 20.9847
lfemur 6.91828 0.540297 -16.0778
ltibia 17.9942
lfoot -21.8616 -9.88278
ltoes 0.549957
1348
root -37.6859 16.8501 -25.1664 165.059 -252.036 166.498
lowerback 4.55883 -2.85823 0.867662
upperback 2.77202 -3.73455 0.5143
thorax 0.274085 -1.84522 0.200215
lowerneck -9.78111 -3.99676 -1.38534
upperneck 16.0501 -6.67116 9.15661
head 6.87871 -2.47426 2.58725
rclavicle -2.93207e-015 7.55382e-015
rhumerus -28.9212 -0.577758 -88.9632
rradius 26.9087
rwrist 3.18631
rhand -21.6979 -8.50934
rfingers 7.12502
rthumb 4.70045 -38.4372
lclavicle -2.93207e-015 7.55382e-015
lhumerus -24.9436 -1.82135 88.3436
lradius 29.4616
lwrist 20.2198
lhand -24.9667 15.5553
lfingers 7.12502
lthumb 1.5437 45.5295
rfemur -18.3725 19.7487 21.8943
rtibia 35.1919
rfoot -12.867 10.857
rtoes 20.9478
lfemur 7.05964 0.855081 -16.3165
ltibia 17.3388
lfoot -21.9145 -9.28591
ltoes 0.686063
1349
root -37.7299 16.8499 -25.2182 165.537 -251.579 166.893
lowerback 4.66959 -2.88168 0.768204
upperback 2.80278 -3.76752 0.507258
thorax 0.249904 -1.86254 0.254706
lowerneck -9.80974 -3.95868 -1.36251
upperneck 16.0866 -6.62455 9.13982
head 6.89151 -2.45048 2.58209
rclavicle -2.77802e-014 -1.98785e-015
rhumerus -28.9681 -0.885861 -88.821
rradius 26.6809
rwrist 3.42608
rhand -21.6417 -8.58105
rfingers 7.12502
rthumb 4.75478 -38.5077
lclavicle -2.77802e-014 -1.98785e-015
lhumerus -24.7636 -2.07731 88.3604
lradius 29.8577
lwrist 20.4704
lhand -24.9754 15.7483
lfingers 7.12502
lthumb 1.53532 45.7226
rfemur -18.8433 19.6767 21.6213
rtibia 35.2569
rfoot -12.2122 11.216
rtoes 20.9442
lfemur 7.20568 1.11641 -16.5205
ltibia 16.6648
lfoot -21.9894 -8.78632
ltoes 0.811776
1350
root -37.7741 16.8498 -25.2697 165.968 -251.107 167.231
lowerback 4.782 -2.89711 0.675419
upperback 2.83283 -3.78968 0.505328
thorax 0.224128 -1.8744 0.310413
lowerneck -9.84498 -3.9271 -1.3452
upperneck 16.1234 -6.58607 9.12219
head 6.9062 -2.43086 2.5767
rclavicle 8.19987e-014 -1.39149e-014
rhumerus -29.0216 -1.20988 -88.6746
rradius 26.4655
rwrist 3.62712
rhand -21.5863 -8.60646
rfingers 7.12502
rthumb 4.80828 -38.5319
lclavicle 8.19987e-014 -1.39149e-014
lhumerus -24.5757 -2.32313 88.3756
lradius 30.2219
lwrist 20.6975
lhand -24.9439 15.9388
lfingers 7.12502
lthumb 1.56579 45.9128
rfemur -19.3262 19.574 21.3692
rtibia 35.3182
rfoot -11.5154 11.5658
rtoes 20.8982
lfemur 7.35425 1.35741 -16.6894
ltibia 15.9728
lfoot -22.0704 -8.39663
ltoes 0.886832
1351
root -37.8187 16.8501 -25.3206 166.352 -250.615 167.519
lowerback 4.89548 -2.90173 0.586138
upperback 2.86289 -3.79747 0.507811
thorax 0.197917 -1.87906 0.368124
lowerneck -9.89766 -3.89844 -1.32532
upperneck 16.165 -6.55223 9.10104
head 6.92565 -2.41299 2.56904
rclavicle -5.06901e-015 -2.38542e-015
rhumerus -29.0868 -1.55765 -88.5226
rradius 26.2671
rwrist 3.80144
rhand -21.5256 -8.58865
rfingers 7.12502
rthumb 4.86682 -38.5128
lclavicle -5.06901e-015 -2.38542e-015
lhumerus -24.3789 -2.56189 88.3897
lradius 30.5705
lwrist 20.8881
lhand -24.94 16.1397
lfingers 7.12502
lthumb 1.56952 46.1136
rfemur -19.8129 19.4484 21.1429
rtibia 35.3688
rfoot -10.8158 11.9042
rtoes 20.6897
lfemur 7.49851 1.6046 -16.8192
ltibia 15.2807
lfoot -22.1562 -8.11173
ltoes 0.903946
1352
root -37.8636 16.8508 -25.3702 166.687 -250.128 167.752
lowerback 5.00394 -2.90286 0.492733
upperback 2.89851 -3.80095 0.514533
thorax 0.180803 -1.88159 0.431803
lowerneck -9.9728 -3.87448 -1.30432
upperneck 16.206 -6.52599 9.08218
head 6.94942 -2.39795 2.56086
rclavicle 2.27111e-014 -3.97569e-016
rhumerus -29.1499 -1.9454 -88.3614
rradius 26.0749
rwrist 3.96419
rhand -21.4736 -8.46748
rfingers 7.12502
rthumb 4.91709 -38.3904
lclavicle 2.27111e-014 -3.97569e-016
lhumerus -24.1748 -2.79517 88.4001
lradius 30.9272
lwrist 21.0402
lhand -24.9813 16.3024
lfingers 7.12502
lthumb 1.52962 46.2767
rfemur -20.293 19.3035 20.9425
rtibia 35.4003
rfoot -10.1764 12.2254
rtoes 20.1758
lfemur 7.6198 1.87674 -16.9078
ltibia 14.6169
lfoot -22.2454 -7.92829
ltoes 0.818913
1353
root -37.9091 16.8523 -25.4184 166.981 -249.62 167.935
lowerback 5.10756 -2.89163 0.403009
upperback 2.93449 -3.78807 0.523728
thorax 0.166619 -1.87592 0.494907
lowerneck -10.0729 -3.85134 -1.26963
upperneck 16.2518 -6.5032 9.05811
head 6.97884 -2.38333 2.54804
rclavicle 7.64327e-014 -5.96354e-015
rhumerus -29.2256 -2.37294 -88.1955
rradius 25.8922
rwrist 4.12585
rhand -21.4124 -8.30461
rfingers 7.12502
rthumb 4.97619 -38.2262
lclavicle 7.64327e-014 -5.96354e-015
lhumerus -23.9737 -3.02478 88.4011
lradius 31.2876
lwrist 21.1525
lhand -25.0754 16.3852
lfingers 7.12502
lthumb 1.43877 46.3601
rfemur -20.7653 19.15 20.7762
rtibia 35.4072
rfoot -9.63334 12.5527
rtoes 19.275
lfemur 7.69546 2.2101 -16.9519
ltibia 14.0098
lfoot -22.3337 -7.82754
ltoes 0.648636
1354
root -37.9546 16.8544 -25.465 167.237 -249.102 168.078
lowerback 5.20338 -2.87101 0.313013
upperback 2.97592 -3.7629 0.53273
thorax 0.162278 -1.86411 0.556733
lowerneck -10.1822 -3.83249 -1.23755
upperneck 16.2933 -6.48835 9.04888
head 7.00964 -2.37128 2.53956
rclavicle -3.32467e-014 1.59028e-015
rhumerus -29.309 -2.83904 -88.0302
rradius 25.719
rwrist 4.29711
rhand -21.3676 -8.10919
rfingers 7.12502
rthumb 5.01937 -38.0297
lclavicle -3.32467e-014 1.59028e-015
lhumerus -23.7632 -3.24277 88.3896
lradius 31.6236
lwrist 21.2206
lhand -25.1859 16.4001
lfingers 7.12502
lthumb 1.33202 46.3757
rfemur -21.2171 18.9801 20.6447
rtibia 35.3914
rfoot -9.21872 12.8862
rtoes 17.9925
lfemur 7.71928 2.61264 -16.9586
ltibia 13.4808
lfoot -22.3975 -7.79679
ltoes 0.423383
1355
root -38.0007 16.8564 -25.5097 167.482 -248.576 168.202
lowerback 5.29889 -2.84175 0.212374
upperback 3.00738 -3.727 0.542604
thorax 0.148421 -1.84715 0.625107
lowerneck -10.2821 -3.81976 -1.21005
upperneck 16.3414 -6.48213 9.04378
head 7.04168 -2.36321 2.53256
rclavicle -1.88845e-014 -6.75868e-015
rhumerus -29.4225 -3.3213 -87.8695
rradius 25.5584
rwrist 4.48156
rhand -21.3313 -7.96405
rfingers 7.12502
rthumb 5.05448 -37.8838
lclavicle -1.88845e-014 -6.75868e-015
lhumerus -23.5762 -3.44256 88.3672
lradius 31.9262
lwrist 21.2726
lhand -25.2782 16.3507
lfingers 7.12502
lthumb 1.24293 46.3268
rfemur -21.6584 18.8088 20.5413
rtibia 35.3588
rfoot -8.93844 13.2072
rtoes 16.4379
lfemur 7.68259 3.10024 -16.935
ltibia 13.0424
lfoot -22.4619 -7.83282
ltoes 0.168134
